<svg version="1.1" class="clearos-svg clearfoundation app-vendor-wiksuite app-free app-category-network app-sub-category-firewall" viewBox="0 0 400 400" preserveAspectRatio="xMinYMin" xmlns="http://www.w3.org/2000/svg" xmlns:xlink= "http://www.w3.org/1999/xlink">
  <path
     style="fill:#686868"
     id="path13"
     d="m 159.32203,224.36932 88.0464,0 12.57804,-35.55885 7.54684,73.85302 27.67173,-186.000219 30.18732,265.323839 17.60929,-120.35308 55.34343,0"
     />
  <path
     style="fill:#686868"
     id="path14"
     d="m 179.721,187.326 c -19.237,-31.379 -11.606,-31.119 -38.655,-79.68 -0.693,38.852 -0.401,45.813 -6.945,38.576 C 113.349,123.126 93.159,92.071 90.395,37.951 c 0,145.068 -156.808,209.574 -50.647,322.712 -0.693,-57.624 23.819,-115.909 70.065,-115.909 41.387,0 69.782,70.364 52.75,117.295 80.544,-63.876 40.703,-139.24 17.158,-174.723 z" />
</svg>
